<mxfile host="app.diagrams.net" agent="Mozilla/5.0 (Windows NT 10.0; Win64; x64) AppleWebKit/537.36 (KHTML, like Gecko) Chrome/130.0.0.0 Safari/537.36 Edg/130.0.0.0" version="24.8.0">
  <diagram name="Страница — 1" id="ZwRY0FpnERSj5kYGZ8sB">
    <mxGraphModel dx="1282" dy="567" grid="1" gridSize="10" guides="1" tooltips="1" connect="1" arrows="1" fold="1" page="1" pageScale="1" pageWidth="827" pageHeight="1169" math="0" shadow="0">
      <root>
        <mxCell id="0" />
        <mxCell id="1" parent="0" />
        <mxCell id="E1nP_8FiuSVxRLJF31YB-1" value="" style="rounded=0;whiteSpace=wrap;html=1;" vertex="1" parent="1">
          <mxGeometry x="294" y="35" width="206" height="265" as="geometry" />
        </mxCell>
        <mxCell id="E1nP_8FiuSVxRLJF31YB-2" value="def start()" style="rounded=0;whiteSpace=wrap;html=1;" vertex="1" parent="1">
          <mxGeometry x="350" y="50" width="90" height="30" as="geometry" />
        </mxCell>
        <mxCell id="E1nP_8FiuSVxRLJF31YB-3" style="edgeStyle=orthogonalEdgeStyle;rounded=0;orthogonalLoop=1;jettySize=auto;html=1;exitX=0.75;exitY=1;exitDx=0;exitDy=0;entryX=0.75;entryY=0;entryDx=0;entryDy=0;" edge="1" parent="1" source="E1nP_8FiuSVxRLJF31YB-4" target="E1nP_8FiuSVxRLJF31YB-6">
          <mxGeometry relative="1" as="geometry" />
        </mxCell>
        <mxCell id="E1nP_8FiuSVxRLJF31YB-4" value="&amp;nbsp;check_if_user_in_db()" style="rounded=0;whiteSpace=wrap;html=1;" vertex="1" parent="1">
          <mxGeometry x="320" y="100" width="150" height="40" as="geometry" />
        </mxCell>
        <mxCell id="E1nP_8FiuSVxRLJF31YB-5" style="edgeStyle=orthogonalEdgeStyle;rounded=0;orthogonalLoop=1;jettySize=auto;html=1;exitX=0.5;exitY=1;exitDx=0;exitDy=0;entryX=0.75;entryY=0;entryDx=0;entryDy=0;" edge="1" parent="1" source="E1nP_8FiuSVxRLJF31YB-6" target="E1nP_8FiuSVxRLJF31YB-8">
          <mxGeometry relative="1" as="geometry" />
        </mxCell>
        <mxCell id="E1nP_8FiuSVxRLJF31YB-6" value="sign_up()" style="rounded=0;whiteSpace=wrap;html=1;" vertex="1" parent="1">
          <mxGeometry x="390" y="160" width="80" height="30" as="geometry" />
        </mxCell>
        <mxCell id="E1nP_8FiuSVxRLJF31YB-7" value="no" style="text;html=1;align=center;verticalAlign=middle;whiteSpace=wrap;rounded=0;" vertex="1" parent="1">
          <mxGeometry x="407" y="133" width="60" height="30" as="geometry" />
        </mxCell>
        <mxCell id="E1nP_8FiuSVxRLJF31YB-8" value="User()" style="rounded=0;whiteSpace=wrap;html=1;" vertex="1" parent="1">
          <mxGeometry x="337" y="210" width="120" height="60" as="geometry" />
        </mxCell>
        <mxCell id="E1nP_8FiuSVxRLJF31YB-9" style="edgeStyle=orthogonalEdgeStyle;rounded=0;orthogonalLoop=1;jettySize=auto;html=1;exitX=0.25;exitY=1;exitDx=0;exitDy=0;" edge="1" parent="1" source="E1nP_8FiuSVxRLJF31YB-4">
          <mxGeometry relative="1" as="geometry">
            <mxPoint x="357" y="210" as="targetPoint" />
          </mxGeometry>
        </mxCell>
        <mxCell id="E1nP_8FiuSVxRLJF31YB-10" value="def show_friends()" style="rounded=0;whiteSpace=wrap;html=1;" vertex="1" parent="1">
          <mxGeometry x="260" y="350" width="120" height="60" as="geometry" />
        </mxCell>
        <mxCell id="E1nP_8FiuSVxRLJF31YB-11" value="def show_calendar()" style="rounded=0;whiteSpace=wrap;html=1;" vertex="1" parent="1">
          <mxGeometry x="414" y="350" width="120" height="60" as="geometry" />
        </mxCell>
      </root>
    </mxGraphModel>
  </diagram>
</mxfile>
